<?xml version="1.0" encoding="UTF-8" standalone="no"?>
<!-- Created with Inkscape (http://www.inkscape.org/) -->

<svg
   xmlns:dc="http://purl.org/dc/elements/1.1/"
   xmlns:cc="http://creativecommons.org/ns#"
   xmlns:rdf="http://www.w3.org/1999/02/22-rdf-syntax-ns#"
   xmlns:svg="http://www.w3.org/2000/svg"
   xmlns="http://www.w3.org/2000/svg"
   xmlns:xlink="http://www.w3.org/1999/xlink"
   xmlns:sodipodi="http://sodipodi.sourceforge.net/DTD/sodipodi-0.dtd"
   xmlns:inkscape="http://www.inkscape.org/namespaces/inkscape"
   width="287.19189"
   height="168.45087"
   viewBox="0 0 287.19189 168.45087"
   id="svg2"
   version="1.1"
   inkscape:version="0.91 r13725"
   sodipodi:docname="mountainDrawing.svg">
  <defs
     id="defs4">
    <linearGradient
       inkscape:collect="always"
       id="linearGradient4600">
      <stop
         style="stop-color:#b3b3b3;stop-opacity:1"
         offset="0"
         id="stop4602" />
      <stop
         style="stop-color:#ffffff;stop-opacity:0"
         offset="1"
         id="stop4604" />
    </linearGradient>
    <linearGradient
       inkscape:collect="always"
       id="linearGradient4590">
      <stop
         style="stop-color:#b3b3b3;stop-opacity:1"
         offset="0"
         id="stop4592" />
      <stop
         style="stop-color:#ffffff;stop-opacity:0;"
         offset="1"
         id="stop4594" />
    </linearGradient>
    <marker
       inkscape:stockid="Tail"
       orient="auto"
       refY="0"
       refX="0"
       id="Tail"
       style="overflow:visible"
       inkscape:isstock="true">
      <g
         id="g4200"
         transform="scale(-1.2,-1.2)"
         style="fill:#000000;fill-opacity:1;stroke:#000000;stroke-opacity:1">
        <path
           id="path4202"
           d="M -3.8048674,-3.9585227 0.54352094,0"
           style="fill:#000000;fill-opacity:1;fill-rule:evenodd;stroke:#000000;stroke-width:0.80000001;stroke-linecap:round;stroke-opacity:1"
           inkscape:connector-curvature="0" />
        <path
           id="path4204"
           d="M -1.2866832,-3.9585227 3.0617053,0"
           style="fill:#000000;fill-opacity:1;fill-rule:evenodd;stroke:#000000;stroke-width:0.80000001;stroke-linecap:round;stroke-opacity:1"
           inkscape:connector-curvature="0" />
        <path
           id="path4206"
           d="M 1.3053582,-3.9585227 5.6537466,0"
           style="fill:#000000;fill-opacity:1;fill-rule:evenodd;stroke:#000000;stroke-width:0.80000001;stroke-linecap:round;stroke-opacity:1"
           inkscape:connector-curvature="0" />
        <path
           id="path4208"
           d="M -3.8048674,4.1775838 0.54352094,0.21974226"
           style="fill:#000000;fill-opacity:1;fill-rule:evenodd;stroke:#000000;stroke-width:0.80000001;stroke-linecap:round;stroke-opacity:1"
           inkscape:connector-curvature="0" />
        <path
           id="path4210"
           d="M -1.2866832,4.1775838 3.0617053,0.21974226"
           style="fill:#000000;fill-opacity:1;fill-rule:evenodd;stroke:#000000;stroke-width:0.80000001;stroke-linecap:round;stroke-opacity:1"
           inkscape:connector-curvature="0" />
        <path
           id="path4212"
           d="M 1.3053582,4.1775838 5.6537466,0.21974226"
           style="fill:#000000;fill-opacity:1;fill-rule:evenodd;stroke:#000000;stroke-width:0.80000001;stroke-linecap:round;stroke-opacity:1"
           inkscape:connector-curvature="0" />
      </g>
    </marker>
    <marker
       inkscape:stockid="Arrow1Lstart"
       orient="auto"
       refY="0"
       refX="0"
       id="Arrow1Lstart"
       style="overflow:visible"
       inkscape:isstock="true">
      <path
         id="path4164"
         d="M 0,0 5,-5 -12.5,0 5,5 0,0 Z"
         style="fill:#000000;fill-opacity:1;fill-rule:evenodd;stroke:#000000;stroke-width:1pt;stroke-opacity:1"
         transform="matrix(0.8,0,0,0.8,10,0)"
         inkscape:connector-curvature="0" />
    </marker>
    <linearGradient
       inkscape:collect="always"
       xlink:href="#linearGradient4590"
       id="linearGradient4596"
       x1="277.16434"
       y1="158.94247"
       x2="282.17178"
       y2="232.84332"
       gradientUnits="userSpaceOnUse" />
    <linearGradient
       inkscape:collect="always"
       xlink:href="#linearGradient4600"
       id="linearGradient4606"
       x1="304.81354"
       y1="173.72583"
       x2="306.5813"
       y2="232.31468"
       gradientUnits="userSpaceOnUse" />
  </defs>
  <sodipodi:namedview
     id="base"
     pagecolor="#ffffff"
     bordercolor="#666666"
     borderopacity="1.0"
     inkscape:pageopacity="0.0"
     inkscape:pageshadow="2"
     inkscape:zoom="1.4"
     inkscape:cx="201.3667"
     inkscape:cy="92.569203"
     inkscape:document-units="px"
     inkscape:current-layer="layer1"
     showgrid="false"
     units="px"
     width="10in"
     showborder="true"
     showguides="true"
     inkscape:guide-bbox="true"
     fit-margin-top="0"
     fit-margin-left="0"
     fit-margin-right="0"
     fit-margin-bottom="0"
     inkscape:window-width="1394"
     inkscape:window-height="855"
     inkscape:window-x="46"
     inkscape:window-y="1"
     inkscape:window-maximized="1" />
  <metadata
     id="metadata7">
    <rdf:RDF>
      <cc:Work
         rdf:about="">
        <dc:format>image/svg+xml</dc:format>
        <dc:type
           rdf:resource="http://purl.org/dc/dcmitype/StillImage" />
        <dc:title />
      </cc:Work>
    </rdf:RDF>
  </metadata>
  <g
     inkscape:label="Layer 1"
     inkscape:groupmode="layer"
     id="layer1"
     transform="translate(-145.68977,-760.99387)">
    <rect
       style="fill:none;stroke:#000000;stroke-width:2.14076567;stroke-miterlimit:4;stroke-dasharray:none"
       id="rect4550"
       width="164.52113"
       height="164.14679"
       x="-748.28937"
       y="921.32727"
       rx="0"
       ry="0"
       transform="matrix(0.86359842,-0.50418029,0.86153734,0.50769421,0,0)" />
    <path
       style="fill:none;stroke:#000000;stroke-width:1;stroke-miterlimit:4;stroke-dasharray:none"
       d="m 154.93945,845.04102 c 44.67513,26.32617 89.35026,52.65234 134.02539,78.97851 44.88998,-26.20703 89.77995,-52.41406 134.66993,-78.62109 -44.67579,-26.32617 -89.35157,-52.65235 -134.02735,-78.97852 -44.88932,26.20703 -89.77864,52.41406 -134.66797,78.6211 z"
       id="rect4552"
       inkscape:connector-curvature="0" />
    <path
       style="fill:none;fill-rule:evenodd;stroke:#000000;stroke-width:1px;stroke-linecap:butt;stroke-linejoin:miter;stroke-opacity:1"
       d="m 207.08127,875.33297 36.87057,-66.92261 25.25381,61.11423"
       id="path4558"
       inkscape:connector-curvature="0"
       sodipodi:nodetypes="ccc" />
    <path
       style="fill:none;fill-rule:evenodd;stroke:#000000;stroke-width:1px;stroke-linecap:butt;stroke-linejoin:miter;stroke-opacity:1"
       d="m 255.06352,836.69463 18.68782,-50.50763 48.9924,94.95434"
       id="path4560"
       inkscape:connector-curvature="0" />
    <path
       style="fill:none;fill-rule:evenodd;stroke:#000000;stroke-width:1px;stroke-linecap:butt;stroke-linejoin:miter;stroke-opacity:1"
       d="m 297.48992,831.13879 8.08123,-19.69797 8.58629,20.70812"
       id="path4562"
       inkscape:connector-curvature="0" />
    <path
       style="fill:none;fill-rule:evenodd;stroke:#000000;stroke-width:1px;stroke-linecap:butt;stroke-linejoin:miter;stroke-opacity:1"
       d="m 306.07622,848.31139 23.73859,-51.01271 43.68909,77.02414"
       id="path4564"
       inkscape:connector-curvature="0"
       sodipodi:nodetypes="ccc" />
    <path
       style="fill:none;fill-rule:evenodd;stroke:#000000;stroke-width:1px;stroke-linecap:butt;stroke-linejoin:miter;stroke-opacity:1"
       d="m 231.32493,831.64387 6.56599,12.12183 9.09138,-13.13198 8.58629,18.18274 2.02031,-7.07107"
       id="path4566"
       inkscape:connector-curvature="0" />
    <path
       style="fill:none;fill-rule:evenodd;stroke:#000000;stroke-width:1px;stroke-linecap:butt;stroke-linejoin:miter;stroke-opacity:1"
       d="m 263.14474,814.47128 2.0203,12.12183 3.03046,-5.55584 12.62691,17.17259 7.57614,-13.13198 8.08122,6.06091"
       id="path4568"
       inkscape:connector-curvature="0" />
    <path
       style="fill:none;fill-rule:evenodd;stroke:#000000;stroke-width:1px;stroke-linecap:butt;stroke-linejoin:miter;stroke-opacity:1"
       d="m 301.02546,823.05757 2.0203,10.10153 9.09138,-5.05077"
       id="path4570"
       inkscape:connector-curvature="0" />
    <path
       style="fill:none;fill-rule:evenodd;stroke:#000000;stroke-width:1px;stroke-linecap:butt;stroke-linejoin:miter;stroke-opacity:1"
       d="m 318.70313,821.03727 6.06091,11.61675 4.54569,-19.69797 6.56599,14.64721 2.02031,-5.05076 6.56599,12.12183 2.0203,-7.57615"
       id="path4572"
       inkscape:connector-curvature="0" />
    <path
       style="fill:none;fill-rule:evenodd;stroke:#000000;stroke-width:1px;stroke-linecap:butt;stroke-linejoin:miter;stroke-opacity:1"
       d="m 262.63966,880.63627 13.8896,-24.74874 18.43528,38.3858"
       id="path4574"
       inkscape:connector-curvature="0" />
    <path
       style="color:#000000;clip-rule:nonzero;display:inline;overflow:visible;visibility:visible;opacity:1;isolation:auto;mix-blend-mode:normal;color-interpolation:sRGB;color-interpolation-filters:linearRGB;solid-color:#000000;solid-opacity:1;fill:#ffffff;fill-opacity:1;fill-rule:nonzero;stroke:none;stroke-width:1px;stroke-linecap:butt;stroke-linejoin:miter;stroke-miterlimit:4;stroke-dasharray:none;stroke-dashoffset:0;stroke-opacity:1;color-rendering:auto;image-rendering:auto;shape-rendering:auto;text-rendering:auto;enable-background:accumulate"
       d="m 253.65399,191.3724 c -0.83462,-1.77092 -2.61155,-5.54953 -3.94874,-8.39689 -1.33719,-2.84737 -2.49527,-5.254 -2.57351,-5.34807 -0.0782,-0.0941 -2.131,2.71557 -4.56168,6.24366 -2.43068,3.52808 -4.49703,6.41769 -4.59189,6.42135 -0.16223,0.006 -5.88549,-10.3955 -6.05989,-11.01359 -0.10994,-0.3896 11.70881,-21.83617 11.98307,-21.74475 0.26326,0.0878 10.49697,24.74671 10.71564,25.8202 0.0849,0.41669 0.24534,0.81821 0.35658,0.89226 0.11124,0.074 0.6534,1.21864 1.2048,2.54353 l 1.00256,2.40889 -0.77802,2.69663 c -0.42792,1.48316 -0.88004,2.69664 -1.00472,2.69664 -0.12469,0 -0.90957,-1.44894 -1.7442,-3.21986 z"
       id="path4578"
       inkscape:connector-curvature="0"
       transform="translate(0,652.3622)" />
    <path
       style="color:#000000;clip-rule:nonzero;display:inline;overflow:visible;visibility:visible;opacity:1;isolation:auto;mix-blend-mode:normal;color-interpolation:sRGB;color-interpolation-filters:linearRGB;solid-color:#000000;solid-opacity:1;fill:#ffffff;fill-opacity:1;fill-rule:nonzero;stroke:none;stroke-width:1px;stroke-linecap:butt;stroke-linejoin:miter;stroke-miterlimit:4;stroke-dasharray:none;stroke-dashoffset:0;stroke-opacity:1;color-rendering:auto;image-rendering:auto;shape-rendering:auto;text-rendering:auto;enable-background:accumulate"
       d="m 274.34981,176.29098 -6.21721,-8.45564 -0.89645,1.69858 c -1.10788,2.09918 -1.58917,2.76258 -1.82973,2.52202 -0.23054,-0.23055 -1.62022,-8.37051 -1.60645,-9.40975 0.0142,-1.07345 9.68044,-27.02158 10.06611,-27.02158 0.30823,0 21.87653,41.48715 21.67373,41.68996 -0.0574,0.0574 -1.68608,-1.08205 -3.61924,-2.53216 -2.09158,-1.56894 -3.60771,-2.54454 -3.74418,-2.40933 -0.12613,0.12497 -1.78532,2.9253 -3.68708,6.22295 -1.90176,3.29766 -3.56227,6.03058 -3.69002,6.07316 -0.12775,0.0426 -3.03002,-3.72761 -6.44948,-8.37821 z"
       id="path4580"
       inkscape:connector-curvature="0"
       transform="translate(0,652.3622)" />
    <path
       style="color:#000000;clip-rule:nonzero;display:inline;overflow:visible;visibility:visible;opacity:1;isolation:auto;mix-blend-mode:normal;color-interpolation:sRGB;color-interpolation-filters:linearRGB;solid-color:#000000;solid-opacity:1;fill:#ffffff;fill-opacity:1;fill-rule:nonzero;stroke:none;stroke-width:1px;stroke-linecap:butt;stroke-linejoin:miter;stroke-miterlimit:4;stroke-dasharray:none;stroke-dashoffset:0;stroke-opacity:1;color-rendering:auto;image-rendering:auto;shape-rendering:auto;text-rendering:auto;enable-background:accumulate"
       d="m 302.34608,175.17059 -0.94591,-4.77446 2.00889,-4.88512 c 1.10489,-2.68682 2.08086,-4.88513 2.16884,-4.88513 0.088,0 1.52217,3.28557 3.1871,7.30127 2.44989,5.90897 2.96441,7.35839 2.69815,7.60082 -0.4074,0.37095 -7.71771,4.41708 -7.98052,4.41708 -0.10485,0 -0.6163,-2.14851 -1.13655,-4.77446 z"
       id="path4582"
       inkscape:connector-curvature="0"
       transform="translate(0,652.3622)" />
    <path
       style="color:#000000;clip-rule:nonzero;display:inline;overflow:visible;visibility:visible;opacity:1;isolation:auto;mix-blend-mode:normal;color-interpolation:sRGB;color-interpolation-filters:linearRGB;solid-color:#000000;solid-opacity:1;fill:#ffffff;fill-opacity:1;fill-rule:nonzero;stroke:none;stroke-width:1px;stroke-linecap:butt;stroke-linejoin:miter;stroke-miterlimit:4;stroke-dasharray:none;stroke-dashoffset:0;stroke-opacity:1;color-rendering:auto;image-rendering:auto;shape-rendering:auto;text-rendering:auto;enable-background:accumulate"
       d="m 342.50423,177.73534 c -0.8919,-1.63203 -2.2828,-4.18871 -3.09089,-5.68151 -0.80808,-1.4928 -1.53235,-2.65108 -1.60948,-2.57395 -0.0771,0.0771 -0.48725,1.00599 -0.91139,2.06415 -0.42414,1.05815 -0.88173,1.96077 -1.01688,2.00582 -0.13515,0.0451 -1.66453,-3.09225 -3.39862,-6.97177 -1.7341,-3.87953 -3.21134,-6.99645 -3.28275,-6.92649 -0.0714,0.07 -1.10605,4.35209 -2.29918,9.51585 -1.19313,5.16376 -2.2637,9.37028 -2.37905,9.34782 -0.11535,-0.0225 -1.34918,-2.24106 -2.74185,-4.93023 l -2.53212,-4.88941 5.16498,-11.08531 c 2.84074,-6.09693 5.28456,-11.12518 5.43071,-11.17389 0.14614,-0.0487 3.86168,6.25073 8.25675,13.99876 l 7.99103,14.08735 -0.80815,3.0898 c -0.44448,1.69938 -0.88539,3.08992 -0.97981,3.09006 -0.0944,1.5e-4 -0.9014,-1.33502 -1.7933,-2.96705 z"
       id="path4584"
       inkscape:connector-curvature="0"
       transform="translate(0,652.3622)" />
    <path
       style="color:#000000;clip-rule:nonzero;display:inline;overflow:visible;visibility:visible;opacity:1;isolation:auto;mix-blend-mode:normal;color-interpolation:sRGB;color-interpolation-filters:linearRGB;solid-color:#000000;solid-opacity:1;fill:url(#linearGradient4596);fill-opacity:1;fill-rule:nonzero;stroke:none;stroke-width:1px;stroke-linecap:butt;stroke-linejoin:miter;stroke-miterlimit:4;stroke-dasharray:none;stroke-dashoffset:0;stroke-opacity:1;color-rendering:auto;image-rendering:auto;shape-rendering:auto;text-rendering:auto;enable-background:accumulate"
       d="m 248.15833,247.13099 c -22.2775,-13.14938 -40.49969,-23.99784 -40.49374,-24.10768 0.0274,-0.50545 23.40054,-42.60548 23.61423,-42.53425 0.13325,0.0444 1.66668,2.71272 3.40764,5.92956 l 3.16537,5.8488 4.39475,-6.36356 c 2.41711,-3.49995 4.48162,-6.39446 4.58779,-6.43224 0.10618,-0.0378 2.11747,4.01397 4.46954,9.00388 2.35207,4.98991 4.31704,9.03351 4.3666,8.98577 0.0496,-0.0478 0.47354,-1.41724 0.94216,-3.04333 0.91156,-3.16307 0.99833,-3.35507 1.35201,-2.9915 0.12611,0.12963 2.56626,5.89132 5.42255,12.80375 l 5.19327,12.56806 -3.14865,5.60305 c -2.1651,3.85282 -3.05545,5.66064 -2.8503,5.78743 0.16409,0.10141 0.37458,0.13726 0.46775,0.0797 0.0932,-0.0576 3.10248,-5.337 6.68734,-11.73202 3.58486,-6.39503 6.6361,-11.58793 6.78054,-11.53978 0.14444,0.0481 4.21683,8.31452 9.04977,18.36973 4.83293,10.05521 8.87129,18.36633 8.97412,18.46916 0.10283,0.10283 0.32325,0.10273 0.48982,-2.1e-4 0.21239,-0.13127 -2.48271,-5.98436 -9.02319,-19.59612 -5.12933,-10.67492 -9.36659,-19.44948 -9.41613,-19.49903 -0.0496,-0.0495 -1.71154,2.80723 -3.69332,6.34838 -1.98178,3.54116 -3.67751,6.43556 -3.76828,6.432 -0.22961,-0.009 -13.00056,-31.03542 -13.09486,-31.81333 -0.0831,-0.68544 6.53255,-18.74407 6.91323,-18.87096 0.12666,-0.0422 0.61776,2.31099 1.09135,5.22937 0.47359,2.91837 0.94005,5.22128 1.03658,5.11757 0.0965,-0.1037 0.79951,-1.32078 1.56217,-2.70461 0.76266,-1.38383 1.48891,-2.55014 1.61388,-2.5918 0.12497,-0.0417 2.99254,3.68473 6.37238,8.28086 3.37983,4.59612 6.23814,8.26256 6.35179,8.14763 0.11365,-0.11492 1.42075,-2.31133 2.90467,-4.88091 1.48392,-2.56957 3.14269,-5.4377 3.68615,-6.37361 l 0.98812,-1.70166 3.69223,2.77495 c 2.03073,1.52622 3.82151,2.77494 3.97951,2.77494 0.158,0 6.07019,11.22216 13.13819,24.93814 7.06801,13.71598 12.8785,24.97697 12.9122,25.02443 0.0337,0.0474 0.23493,-0.0109 0.44716,-0.12967 0.3183,-0.17812 -0.69796,-2.31599 -5.80324,-12.20811 -3.40402,-6.59569 -7.15375,-13.87191 -8.33274,-16.16938 l -2.14362,-4.17721 3.81985,-8.19716 c 2.10092,-4.50843 3.92408,-8.23504 4.05147,-8.28133 0.12739,-0.0463 0.23161,-0.28205 0.23161,-0.52389 0,-0.53268 3.92356,-8.95117 4.21409,-9.04186 0.11293,-0.0353 1.49693,2.43407 3.07555,5.48739 1.57862,3.05332 2.94233,5.55109 3.03046,5.55059 0.0881,-5e-4 1.12373,-4.20608 2.30134,-9.34573 1.17761,-5.13966 2.23609,-9.31317 2.35219,-9.27447 0.16129,0.0538 4.05459,8.49326 6.12733,13.28222 0.23433,0.54141 0.33859,0.39167 1.14292,-1.6415 0.49906,-1.26154 1.03267,-2.23726 1.22352,-2.23726 0.18615,0 1.70816,2.53014 3.38222,5.62254 1.67407,3.0924 3.126,5.5357 3.22651,5.42957 0.10051,-0.10613 0.56894,-1.66304 1.04096,-3.45979 0.47201,-1.79675 0.96528,-3.30219 1.09614,-3.34543 0.23346,-0.0771 26.13424,45.33387 26.11146,45.78037 -0.0125,0.24484 -83.37715,48.94096 -83.89791,49.00762 -0.17156,0.022 -18.53899,-10.71866 -40.8165,-23.86805 z"
       id="path4588"
       inkscape:connector-curvature="0"
       transform="translate(0,652.3622)" />
    <path
       style="color:#000000;clip-rule:nonzero;display:inline;overflow:visible;visibility:visible;opacity:1;isolation:auto;mix-blend-mode:normal;color-interpolation:sRGB;color-interpolation-filters:linearRGB;solid-color:#000000;solid-opacity:1;fill:url(#linearGradient4606);fill-opacity:1;fill-rule:nonzero;stroke:none;stroke-width:1px;stroke-linecap:butt;stroke-linejoin:miter;stroke-miterlimit:4;stroke-dasharray:none;stroke-dashoffset:0;stroke-opacity:1;color-rendering:auto;image-rendering:auto;shape-rendering:auto;text-rendering:auto;enable-background:accumulate"
       d="m 305.17488,193.74558 c -0.29954,-0.59031 -2.12584,-4.12309 -4.05846,-7.85063 -2.3692,-4.56958 -3.43641,-6.87302 -3.27615,-7.07106 0.13074,-0.16156 0.74737,-1.5438 1.37028,-3.07166 0.64043,-1.57079 1.27819,-2.77792 1.46767,-2.77792 0.23109,0 0.59264,1.28582 1.1649,4.14293 0.4564,2.2786 0.86346,4.17656 0.90457,4.21768 0.0411,0.0411 2.1404,-1.06555 4.66506,-2.45926 2.52466,-1.39371 4.68787,-2.47371 4.80713,-2.40001 0.11926,0.0737 0.41995,0.73659 0.6682,1.47307 l 0.45135,1.33905 -3.60956,7.76555 c -1.98525,4.27105 -3.69974,7.76554 -3.80997,7.76554 -0.11023,0 -0.44549,-0.48298 -0.74502,-1.07328 z"
       id="path4598"
       inkscape:connector-curvature="0"
       transform="translate(0,652.3622)" />
  </g>
</svg>
